<?xml version="1.0" encoding="UTF-8" standalone="no"?>
<!-- Generator: Adobe Illustrator 16.0.0, SVG Export Plug-In . SVG Version: 6.00 Build 0)  -->

<svg
   xmlns:dc="http://purl.org/dc/elements/1.1/"
   xmlns:cc="http://creativecommons.org/ns#"
   xmlns:rdf="http://www.w3.org/1999/02/22-rdf-syntax-ns#"
   xmlns:svg="http://www.w3.org/2000/svg"
   xmlns="http://www.w3.org/2000/svg"
   xmlns:sodipodi="http://sodipodi.sourceforge.net/DTD/sodipodi-0.dtd"
   xmlns:inkscape="http://www.inkscape.org/namespaces/inkscape"
   version="1.1"
   id="Capa_1"
   x="0px"
   y="0px"
   width="48"
   height="48"
   viewBox="0 0 36.626156 36.626156"
   xml:space="preserve"
   inkscape:version="0.48.4 r9939"
   sodipodi:docname="gps-route.svg"><metadata
     id="metadata55"><rdf:RDF><cc:Work
         rdf:about=""><dc:format>image/svg+xml</dc:format><dc:type
           rdf:resource="http://purl.org/dc/dcmitype/StillImage" /><dc:title></dc:title></cc:Work></rdf:RDF></metadata><defs
     id="defs53" /><sodipodi:namedview
     pagecolor="#ffffff"
     bordercolor="#666666"
     borderopacity="1"
     objecttolerance="10"
     gridtolerance="10"
     guidetolerance="10"
     inkscape:pageopacity="0"
     inkscape:pageshadow="2"
     inkscape:window-width="1366"
     inkscape:window-height="708"
     id="namedview51"
     showgrid="false"
     inkscape:zoom="7.375"
     inkscape:cx="44.90278"
     inkscape:cy="21.252357"
     inkscape:window-x="1280"
     inkscape:window-y="256"
     inkscape:window-maximized="1"
     inkscape:current-layer="Capa_1" /><g
     id="g3"
     transform="matrix(0.09385654,0,0,0.09385654,1.6280174e-8,0.23362873)"><g
       id="g5"><path
         d="m 319.84,13.988 c -39.056,0 -70.821,31.771 -70.821,70.83 0,36.254 57.826,115.962 64.42,124.933 l 2.432,3.297 c 0.919,1.261 2.42,2.018 3.97,2.018 1.573,0 3.05,-0.757 3.975,-2.012 l 2.427,-3.303 C 332.836,200.78 390.681,121.072 390.681,84.818 390.679,45.76 358.9,13.988 319.84,13.988 z m 0,105.94 c -16.027,0 -29.075,-13.037 -29.075,-29.072 0,-16.035 13.042,-29.079 29.075,-29.079 16.038,0 29.081,13.049 29.081,29.079 0,16.03 -13.049,29.072 -29.081,29.072 z"
         id="path7"
         inkscape:connector-curvature="0"
         style="fill:#ffffff" /><path
         d="m 319.84,74.661 c -8.923,0 -16.189,7.266 -16.189,16.201 0,8.929 7.267,16.198 16.189,16.198 8.935,0 16.2,-7.269 16.2,-16.198 0,-8.941 -7.266,-16.201 -16.2,-16.201 z"
         id="path9"
         inkscape:connector-curvature="0"
         style="fill:#ffffff" /><path
         d="m 143.185,330.447 -4.422,3.297 C 167.277,291.2 209.574,221.706 209.574,183.993 209.574,126.212 162.566,79.203 104.791,79.203 47.015,79.204 0,126.206 0,183.993 0,237.638 85.557,355.554 95.309,368.824 l 3.579,4.882 c 1.384,1.867 3.579,2.984 5.897,2.984 2.317,0 4.512,-1.117 5.873,-2.973 l 3.603,-4.894 c 1.297,-1.766 3.966,-5.429 7.562,-10.509 1.813,2.258 4.471,3.471 7.17,3.471 1.925,0 3.867,-0.601 5.521,-1.838 l 19.696,-14.729 c 4.083,-3.044 4.912,-8.833 1.876,-12.904 -3.057,-4.083 -8.83,-4.923 -12.901,-1.867 z m -38.401,-94.509 c -23.716,0 -43.019,-19.293 -43.019,-43.019 0,-23.712 19.302,-43.015 43.019,-43.015 23.716,0 43.006,19.302 43.006,43.015 0.006,23.726 -19.284,43.019 -43.006,43.019 z"
         id="path11"
         inkscape:connector-curvature="0"
         style="fill:#ffffff" /><path
         d="m 104.784,168.966 c -13.208,0 -23.957,10.749 -23.957,23.953 0,13.217 10.749,23.966 23.957,23.966 13.207,0 23.956,-10.749 23.956,-23.966 0.006,-13.204 -10.742,-23.953 -23.956,-23.953 z"
         id="path13"
         inkscape:connector-curvature="0"
         style="fill:#ffffff" /><path
         d="m 199.84,288.102 -37.773,28.234 c -4.083,3.044 -4.924,8.833 -1.873,12.916 1.813,2.42 4.584,3.699 7.395,3.699 1.925,0 3.858,-0.601 5.51,-1.837 l 37.785,-28.235 c 4.083,-3.05 4.918,-8.833 1.867,-12.916 -3.051,-4.077 -8.828,-4.924 -12.911,-1.861 z"
         id="path15"
         inkscape:connector-curvature="0"
         style="fill:#ffffff" /><path
         d="M 256.513,245.749 218.73,273.99 c -4.071,3.044 -4.911,8.833 -1.861,12.916 1.813,2.414 4.588,3.699 7.398,3.699 1.921,0 3.854,-0.601 5.506,-1.838 l 37.788,-28.234 c 4.071,-3.05 4.912,-8.833 1.861,-12.916 -3.055,-4.077 -8.838,-4.93 -12.909,-1.868 z"
         id="path17"
         inkscape:connector-curvature="0"
         style="fill:#ffffff" /><path
         d="m 295.105,216.908 -19.695,14.73 c -4.083,3.038 -4.912,8.827 -1.88,12.904 1.82,2.432 4.588,3.704 7.398,3.704 1.928,0 3.855,-0.594 5.512,-1.837 l 19.708,-14.724 c 4.083,-3.045 4.912,-8.827 1.861,-12.91 -3.049,-4.083 -8.82,-4.928 -12.904,-1.867 z"
         id="path19"
         inkscape:connector-curvature="0"
         style="fill:#ffffff" /></g></g><g
     id="g21"
     transform="translate(0,-354.05284)" /><g
     id="g23"
     transform="translate(0,-354.05284)" /><g
     id="g25"
     transform="translate(0,-354.05284)" /><g
     id="g27"
     transform="translate(0,-354.05284)" /><g
     id="g29"
     transform="translate(0,-354.05284)" /><g
     id="g31"
     transform="translate(0,-354.05284)" /><g
     id="g33"
     transform="translate(0,-354.05284)" /><g
     id="g35"
     transform="translate(0,-354.05284)" /><g
     id="g37"
     transform="translate(0,-354.05284)" /><g
     id="g39"
     transform="translate(0,-354.05284)" /><g
     id="g41"
     transform="translate(0,-354.05284)" /><g
     id="g43"
     transform="translate(0,-354.05284)" /><g
     id="g45"
     transform="translate(0,-354.05284)" /><g
     id="g47"
     transform="translate(0,-354.05284)" /><g
     id="g49"
     transform="translate(0,-354.05284)" /></svg>